# xmcd
#
# Track frame offsets: 
#        150
#        15159
#        29472
#        44654
#        57701
#        72581
#        88448
#        113827
#        124997
#        140448
#        153821
#        168427
#        180383
#
# Disc length: 2607 seconds
#
# Revision: 1
# Processed by: cddbd v1.5.2PL0 Copyright (c) Steve Scherf et al.
# Submitted via: ExactAudioCopyFreeDBPlugin 1.0
#
DISCID=b70a2d0d
DTITLE=Drew's Famous - Country Line Dancing Party Music
DYEAR=2005
DGENRE=Country
TTITLE0=Boot Scootin' Boogie
TTITLE1=Cotton Eyed Joe
TTITLE2=Achy Breaky Heart
TTITLE3=Don't Rock The Jukebox
TTITLE4=Down At The Twist and Shout
TTITLE5=The Devil Went Down To Georgia
TTITLE6=Wild Wild West
TTITLE7=Chattahoochee
TTITLE8=Walking To Jerusalem
TTITLE9=Little Miss Honkey Tonk
TTITLE10=All My Ex's Live In Texas
TTITLE11=Littlt Bitty
TTITLE12=My Maria
EXTD=YEAR: 2005
EXTT0=
EXTT1=
EXTT2=
EXTT3=
EXTT4=
EXTT5=
EXTT6=
EXTT7=
EXTT8=
EXTT9=
EXTT10=
EXTT11=
EXTT12=
PLAYORDER=
